<svg width="43" height="31" viewBox="0 0 43 31" fill="none" xmlns="http://www.w3.org/2000/svg">
  <path d="M3.78175 15.4528C7.2117 14.3951 11.9609 14.1307 12.6645 14.1307C15.424 14.1307 18.9678 14.3951 21.2833 14.3951C27.3665 14.3951 35.5796 14.1307 35.5796 14.1307V15.8053L34.2828 15.9323C28.8485 16.5498 20.7068 18.8347 19.3485 22.5917C17.1498 28.6731 19.6123 30.8765 19.7003 30.8765C13.1042 30.524 8.79476 25.324 8.88271 25.2358C8.09118 24.5307 7.2117 22.768 7.2117 22.5917C2.11074 20.829 0 18.7138 0 17.7443C0 16.7748 0.351791 16.5104 3.78175 15.4528Z" fill="black"/>
  <path d="M15.7036 7.17312C11.6249 7.39626 9.92286 10.9568 9.50995 12.8446C11.8104 12.1476 16.323 12.3219 19.1543 12.8446C19.8622 11.9733 20.4815 6.91172 15.7036 7.17312Z" fill="black"/>
  <path fill-rule="evenodd" clip-rule="evenodd" d="M20.8108 31C29.3712 31 36.3108 24.0604 36.3108 15.5C36.3108 15.036 36.2904 14.5768 36.2505 14.1232L34.7644 14.1492C34.8069 14.5937 34.8287 15.0443 34.8287 15.5C34.8287 23.2419 28.5526 29.5179 20.8107 29.5179C13.0689 29.5179 6.79281 23.2419 6.79281 15.5C6.79281 15.323 6.79609 15.1467 6.8026 14.9713L5.313 15.234C5.31151 15.3225 5.31076 15.4111 5.31076 15.5C5.31076 24.0604 12.2503 31 20.8108 31ZM34.4832 12.3932C33.0697 6.14641 27.4849 1.48207 20.8107 1.48207C14.1829 1.48207 8.62941 6.08183 7.16836 12.2632L5.59287 12.541C6.97402 5.39594 13.2622 0 20.8108 0C28.2978 0 34.545 5.30841 35.9939 12.3668L34.4832 12.3932Z" fill="black"/>
  <path d="M38.0678 13.6478L42.3276 14.8175L38.1876 16.3585L36.44 15.0778L38.0678 13.6478Z" fill="black"/>
</svg>
